# xmcd CD database file
#
# Track frame offsets:
#	150
#	37299
#	63375
#	105898
#	126818
#	159234
#	175937
#	196915
#	239290
#	265570
#	285110
#	315698
#
# Disc length: 4418 seconds
#
# Revision: 0
# Processed by: cddbd v1.5.2PL0 Copyright (c) Steve Scherf et al.
# Submitted via: CDex 1.51
#
DISCID=9711400c
DTITLE=Asha - Love Songs To Remember
DYEAR=2002
DGENRE=New Age
TTITLE0=Mary Moon
TTITLE1=Soldier Of Love
TTITLE2=Greensleeves
TTITLE3=The Gypsy Madonna
TTITLE4=Hallelujah Sunshine
TTITLE5=Water Lillies
TTITLE6=Rashani
TTITLE7=Open Secret
TTITLE8=Gloria
TTITLE9=Shine Brightly
TTITLE10=In Love
TTITLE11=Flying Away
EXTD=YEAR: 2002
EXTT0=
EXTT1=
EXTT2=
EXTT3=
EXTT4=
EXTT5=
EXTT6=
EXTT7=
EXTT8=
EXTT9=
EXTT10=
EXTT11=
PLAYORDER=
